<?xml version="1.0" encoding="UTF-8"?>
<svg width="1181px" height="129px" viewBox="0 0 1181 129" version="1.1" xmlns="http://www.w3.org/2000/svg" xmlns:xlink="http://www.w3.org/1999/xlink">
    <title>Porsche_</title>
    <g id="New-Designs" stroke="none" stroke-width="1" fill="none" fill-rule="evenodd">
        <g id="Artboard-1-Copy" transform="translate(-236.000000, -319.000000)" fill="#FFFFFF">
            <g id="Porsche_" transform="translate(236.000000, 321.000000)">
                <polygon id="Line" fill-rule="nonzero" points="960 -2 960 127 956 127 956 -2"></polygon>
                <g id="Group-14" transform="translate(0.000000, 32.000000)">
                    <path d="M230.6645,45.2877 C230.6375,46.4767 229.6965,47.4467 228.5025,47.5147 L146.1875,47.5147 C145.2625,47.4997 144.5015,46.7867 144.4295,45.8697 L144.4295,15.3357 C144.5655,14.2387 145.5165,13.4227 146.6275,13.4517 L228.3105,13.4717 C229.5875,13.4847 230.6275,14.4987 230.6645,15.7687 L230.6645,45.2877 Z M230.7735,0.0807 L144.5375,0.0705730984 C137.0305,0.0387 130.9185,6.0627 130.8825,13.5287 L130.8825,47.4807 C130.9005,51.0597 132.3495,54.4857 134.9105,57.0027 C137.4705,59.5187 140.9325,60.9187 144.5315,60.8940292 L230.5695,60.8940292 C234.1575,60.9027 237.6015,59.4867 240.1355,56.9607 C242.6695,54.4337 244.0845,51.0057 244.0665,47.4367 L244.0755,13.4857 L244.0725,13.1797 C243.9385,5.9737 238.0575,0.1477 230.7735,0.0807 L230.7735,0.0807 Z" id="Fill-2"></path>
                    <path d="M101.612,29.2641 C101.642,30.4291 100.744,31.4101 99.576,31.4911 L13.45,31.4911 L13.45,13.4451 L99.328,13.4731 C100.595,13.4961 101.612,14.5191 101.622,15.7791 L101.612,29.2641 Z M101.521,0.0630469831 L0,0.0630469831 L0,60.8771 L13.453,60.8771 L13.453,44.8691 L101.52,44.8691 C105.113,44.8821 108.563,43.4701 111.107,40.9461 C113.651,38.4221 115.078,34.9941 115.073,31.4201 L115.092,13.4891 C115.089,9.9181 113.656,6.4951 111.109,3.9761 C108.563,1.4581 105.112,0.0531 101.521,0.0630469831 L101.521,0.0630469831 Z" id="Fill-4"></path>
                    <polygon id="Fill-6" points="787.3694 36.1926 879.3694 36.1926 879.3694 24.8376 787.3694 24.8376"></polygon>
                    <polygon id="Fill-8" points="773.7386 0.0955 773.7386 11.4585 893.0006 11.4535 893.0006 0.0955"></polygon>
                    <polygon id="Fill-9" points="773.7384 60.9266 893.0004 60.9266 893.0004 49.5706 773.7384 49.5706"></polygon>
                    <path d="M522.5808,13.5328 L522.5808,13.5328 L522.5878,47.4848 C522.5648,51.0588 523.9758,54.4948 526.5088,57.0318 C529.0408,59.5678 532.4858,60.9958 536.0798,60.9998 L633.5178,60.8978 L633.5178,47.5188 L537.8998,47.5188 C536.9768,47.4988 536.2178,46.7888 536.1418,45.8738 L536.1418,15.3398 C536.2808,14.2448 537.2298,13.4308 538.3398,13.4558 L633.5178,13.4558 L633.5178,0.0746650626 L536.2398,0.0746650626 C528.7318,0.0418 522.6178,6.0658 522.5808,13.5328" id="Fill-10"></path>
                    <path d="M492.9699,24.811 L492.9659,24.808 L407.1129,24.84 C406.5289,24.875 405.9569,24.67 405.5289,24.273 C405.1009,23.877 404.8549,23.323 404.8489,22.741 L404.8489,13.623 C404.8499,13.037 405.0899,12.476 405.5149,12.07 C405.9389,11.663 406.5119,11.445 407.1009,11.466 L504.5189,11.466 L504.5189,0.107 L404.6289,0.118 C401.0669,0.155 397.6659,1.599 395.1759,4.132 C392.6859,6.665 391.3099,10.078 391.350966,13.62 L391.350966,22.738 C391.350966,30.202 397.4359,36.253 404.9409,36.254 L490.7929,36.223 C491.3759,36.193 491.9459,36.401 492.3709,36.797 C492.7969,37.194 493.0419,37.746 493.0499,38.326 L493.0409,38.326 L493.0569,47.477 C493.0519,48.058 492.8079,48.612 492.3809,49.008 C491.9539,49.405 491.3819,49.61 490.7989,49.575 L393.2119,49.575 L393.2119,60.930021 L492.9729,60.930021 C500.4559,60.943 506.5339,54.922 506.5499,47.48 L506.5499,38.329 C506.5269,30.878 500.4619,24.841 492.9699,24.811" id="Fill-11"></path>
                    <path d="M362.1973,29.2641 L362.1873,29.2641 C362.2103,30.4271 361.3163,31.4051 360.1493,31.4911 L273.7373,31.4911 L273.7373,13.4451 L359.9043,13.4731 C361.1703,13.4981 362.1873,14.5201 362.1973,15.7791 L362.1973,29.2641 Z M362.6413,40.1771 C369.9373,39.9161 375.7033,33.9351 375.6583,26.6751 L375.6663,13.4911 C375.6623,9.9301 374.2363,6.5161 371.7013,4.0011 C369.1663,1.4861 365.7303,0.0761 362.1493,0.0801 L362.1493,0.0691 L260.2843,0.0511 L260.2843,60.8731 L273.7373,60.8731 L273.7373,44.8731 L348.7013,44.8731 L349.0133,44.8761 C356.3733,45.0411 362.2883,51.0261 362.2883,58.3851 L362.2883,60.7771 L375.8123,60.7771 L375.8163,60.6191 C375.8133,51.8321 370.6683,43.8491 362.6413,40.1771 L362.6413,40.1771 Z" id="Fill-12"></path>
                    <polygon id="Fill-13" points="744.3844 24.733 662.6344 24.733 662.6344 0 649.1814 0 649.1814 60.82 662.6344 60.82 662.6344 38.115 744.3844 38.115 744.3844 60.82 757.8394 60.82 757.8394 0 744.3844 0"></polygon>
                </g>
                <g id="R2D_2" transform="translate(1023.000000, 12.000000)" fill-rule="nonzero">
                    <path d="M56.2344759,61.2782694 C68.4947839,56.9911504 77.1584699,47.4139626 77.1584699,31.9960669 L77.1584699,31.425762 C77.1584699,22.2812193 74.1182315,14.7099312 68.7928465,9.41986234 C62.7123696,3.42182891 53.3333333,0 41.7883756,0 L0,0 L22.0168902,36.2635202 L22.0168902,15.1425762 L40.3378043,15.1425762 C52.8961749,15.1425762 60.2483855,21.0029499 60.2483855,32.2910521 L60.2483855,32.5860374 C60.2483855,43.0088496 53.0352707,49.8721731 40.0397417,49.8721731 L30.2434178,49.8721731 L39.1654247,64.5821042 L39.1654247,64.5821042 L60.6656731,100 L80,100 L56.1748634,61.2979351 L56.2344759,61.2782694 Z" id="Path"></path>
                    <path d="M110.694707,0 L75,0 L96.7306238,36.4697157 L96.7306238,15.0902349 L110.55742,15.0902349 C128.797023,15.0902349 140.897921,28.3016069 140.897921,49.9975278 L140.897921,50.8677379 C140.897921,66.4326329 134.582703,77.5871446 124.188091,82.5710754 L132.189981,96 C148.252599,88.4054388 158,71.9110012 158,50.7292954 L158,49.5822002 C158,20.1334981 139.191635,0.0197775031 110.694707,0.0197775031 L110.694707,0 Z" id="Path"></path>
                    <path d="M87,92.1101215 L101.023344,77.7684211 C106.069401,72.6380567 107.888328,70.0534413 107.888328,66.6137652 C107.888328,63.1740891 105.443533,60.9975709 102.177287,60.9975709 C98.911041,60.9975709 96.5249211,62.8825911 93.473817,66.6137652 L87.0782334,60.5894737 C91.2246057,54.9732794 96.0555205,52 102.940063,52 C111.721767,52 117.921767,57.2080972 117.921767,65.7975709 L117.921767,65.9336032 C117.921767,72.5603239 114.851104,76.3497976 107.790536,83.1708502 L99.8302839,91.2161943 L118,91.2161943 L118,100 L87.0391167,100 L87.0391167,92.0906883 L87,92.1101215 Z" id="Path"></path>
                </g>
            </g>
        </g>
    </g>
</svg>